PathFileType	4	(X/Y/Z)	C:/Users/opensim2020/Desktop/walking_exp_matlab/subject06_walking21_straight_03.trc																																																																																																																																		
DataRate	CameraRate	NumFrames	NumMarkers	Units	OrigDataRate	OrigDataStartFrame	OrigNumFrames																																																																																																																														
100	100	7	44	mm	100	1834	110																																																																																																																														
Frame#	Time	LFHD			RFHD			LBHD			RBHD			C7			T10			CLAV			STRN			RBAK			LSHO			LUPA			LELB			LFRM			LWRA			LWRB			LFIN			RSHO			RUPA			RELB			RFRM			RWRA			RWRB			RFIN			LASI			RASI			LPSI			RPSI			LTHI			LKNE			LTIB			LANK			LHEE			LTOE			RTHI			RKNE			RTIB			RANK			RHEE			RTOE			*39			*40			*41			*42			*43		
		X1	Y1	Z1	X2	Y2	Z2	X3	Y3	Z3	X4	Y4	Z4	X5	Y5	Z5	X6	Y6	Z6	X7	Y7	Z7	X8	Y8	Z8	X9	Y9	Z9	X10	Y10	Z10	X11	Y11	Z11	X12	Y12	Z12	X13	Y13	Z13	X14	Y14	Z14	X15	Y15	Z15	X16	Y16	Z16	X17	Y17	Z17	X18	Y18	Z18	X19	Y19	Z19	X20	Y20	Z20	X21	Y21	Z21	X22	Y22	Z22	X23	Y23	Z23	X24	Y24	Z24	X25	Y25	Z25	X26	Y26	Z26	X27	Y27	Z27	X28	Y28	Z28	X29	Y29	Z29	X30	Y30	Z30	X31	Y31	Z31	X32	Y32	Z32	X33	Y33	Z33	X34	Y34	Z34	X35	Y35	Z35	X36	Y36	Z36	X37	Y37	Z37	X38	Y38	Z38	X39	Y39	Z39	X40	Y40	Z40	X41	Y41	Z41	X42	Y42	Z42	X43	Y43	Z43	X44	Y44	Z44
																																																																																																																																					
69	0.68	131.41377	1659.54761	-1102.61072	119.22129	1642.19604	-972.20099	-0.54569	1607.23206	-1118.44971	-11.19013	1594.2439	-990.40839	-7.97839	1446.99255	-1067.28784	-53.27382	1120.59741	-1054.7229	99.50637	1367.26428	-1059.66492	135.0672	1191.87219	-1067.15564	-90.0821	1279.56311	-994.72638	53.39014	1402.53369	-1223.28662	67.2621	1205.67322	-1305.17493	75.97392	1093.98254	-1325.18689	143.95491	959.26385	-1342.11377	230.21552	869.67163	-1287.80725	180.9987	845.5824	-1333.0415	246.90297	784.96582	-1327.82471	43.68946	1399.90564	-901.31104	-32.35323	1211.42761	-820.82672	-46.79232	1089.86389	-809.3457	-56.25523	970.04608	-790.27576	-20.8674	820.58728	-812.49805	-78.96581	833.97998	-780.49835	-61.2504	751.01898	-776.27753	113.49383	957.65973	-1169.19836	125.44829	964.07996	-950.755	-42.20037	987.12238	-1129.8761	-25.61707	984.47211	-963.19427	27.59964	644.07605	-1214.70239	13.09657	480.25317	-1187.43115	-67.12817	233.45438	-1171.64417	-102.20436	67.66776	-1119.71838	-143.96695	58.09719	-1072.46045	37.19898	34.03944	-1125.28906	166.4944	645.82397	-885.83069	217.37047	531.97003	-909.52185	176.56436	269.36935	-914.11316	160.9122	84.35088	-958.39038	125.91424	59.81298	-1008.30762	307.57394	47.89098	-940.80945	26.62369	1696.02063	-1051.19421	NaN	NaN	NaN	NaN	NaN	NaN	NaN	NaN	NaN	NaN	NaN	NaN
70	0.69	145.6244	1657.68042	-1101.80652	133.16492	1640.09802	-971.40826	13.73763	1605.29187	-1118.0592	2.68862	1591.97449	-990.11694	6.28248	1444.99292	-1067.04443	-38.89811	1118.56042	-1054.14856	113.85166	1365.30029	-1059.44043	149.45918	1189.88879	-1067.43323	-75.99062	1277.46008	-994.78046	67.68118	1400.81055	-1223.04797	83.31985	1204.474	-1305.72815	94.0714	1093.30542	-1326.58594	166.92134	961.06635	-1341.68433	256.40527	875.97998	-1285.83679	209.05185	849.31213	-1331.39575	277.76547	792.10718	-1325.01611	57.88233	1397.50549	-900.99963	-19.98053	1209.54626	-821.26569	-35.60146	1088.15405	-809.55682	-47.40203	968.64337	-790.14136	-15.02219	818.34296	-811.29883	-73.10856	833.11389	-779.99506	-57.3238	749.93427	-775.33185	126.39876	955.75958	-1169.72168	140.60255	962.03491	-951.3313	-28.86117	985.0813	-1128.80823	-10.59467	982.23706	-962.30151	37.44625	642.74799	-1214.46997	20.50121	479.0152	-1187.48315	-63.98187	233.46095	-1171.6554	-101.48074	68.16415	-1119.30786	-143.23854	59.01023	-1071.95203	37.47891	33.93976	-1125.33838	180.10677	642.87262	-885.97876	230.98985	528.87115	-909.77313	204.76375	264.77066	-914.45831	202.56554	79.02242	-958.35999	169.45178	52.90407	-1008.82928	351.2258	50.74365	-940.80695	40.64359	1694.00635	-1050.65234	NaN	NaN	NaN	NaN	NaN	NaN	NaN	NaN	NaN	NaN	NaN	NaN
71	0.7	159.87749	1655.64526	-1100.97351	147.04849	1637.92297	-970.60297	28.06411	1603.16772	-1117.69751	16.66055	1589.75781	-989.65863	20.64894	1442.86816	-1066.67834	-24.58398	1116.33643	-1053.45386	128.32704	1363.11743	-1059.19519	163.90135	1187.72205	-1067.67529	-61.62359	1275.05713	-994.75366	82.09527	1398.90894	-1222.73682	99.28268	1203.18872	-1306.37573	111.84817	1092.34412	-1327.70874	189.54649	962.92584	-1341.52173	281.90311	882.41071	-1283.74304	236.44612	853.07758	-1329.4939	307.8212	799.59857	-1322.11853	72.1817	1394.9668	-900.64972	-7.09803	1207.51855	-821.414	-23.93443	1086.41699	-809.7569	-38.27539	967.20099	-789.94196	-8.71797	816.12537	-810.11249	-66.78297	832.24261	-779.44714	-52.94017	748.71527	-774.16486	139.82382	953.52448	-1170.18311	155.59373	959.6347	-951.5163	-15.32205	982.89935	-1127.78821	4.30243	979.82581	-961.31671	47.37617	641.19684	-1214.505	28.08896	477.67389	-1187.47571	-60.6595	233.50497	-1171.57471	-100.79083	68.76443	-1118.86841	-142.59868	60.07798	-1071.30969	37.75467	33.74606	-1125.38293	192.8118	639.21802	-886.07697	243.86932	525.31177	-910.28961	232.23865	260.85104	-914.93915	243.55675	75.25045	-958.44592	211.80573	48.03271	-1009.03973	393.65729	54.28525	-941.18768	54.56939	1691.76941	-1050.02576	NaN	NaN	NaN	NaN	NaN	NaN	NaN	NaN	NaN	NaN	NaN	NaN
72	0.71	174.10811	1653.54175	-1100.1106	161.0287	1635.62244	-969.73157	42.40933	1600.86646	-1117.24011	30.75705	1587.27429	-989.32599	35.1271	1440.56628	-1066.22876	-10.08791	1113.90857	-1052.82727	142.88278	1360.82922	-1058.86316	178.37839	1185.39966	-1067.80286	-47.12991	1272.43945	-994.58734	96.57559	1396.84631	-1222.29944	114.9423	1201.77539	-1306.91589	129.50331	1091.12817	-1328.60303	211.97275	964.96021	-1340.83972	306.70215	888.91711	-1281.62451	263.23434	857.23932	-1327.64746	337.03955	807.45123	-1319.18628	86.60248	1392.36743	-900.24243	5.42051	1205.51575	-821.7821	-12.33369	1084.63147	-809.66901	-28.78201	965.7049	-789.56744	-1.91587	813.9588	-808.81848	-59.94859	831.40198	-778.80725	-47.75001	747.58899	-772.97504	153.57597	951.1676	-1170.53503	170.66316	956.92365	-951.66443	-1.64411	980.61255	-1126.78552	19.22846	977.23071	-960.31873	57.92015	639.71893	-1214.11707	35.98133	476.33563	-1187.47278	-57.10093	233.62056	-1171.38403	-100.011	69.51078	-1118.21765	-141.72412	61.34739	-1070.43774	38.03897	33.58548	-1125.42261	204.76018	635.01062	-886.23407	256.75516	521.17035	-910.6604	258.93253	257.63406	-915.54736	283.41147	73.11858	-958.66425	253.75099	44.7507	-1009.09235	434.79614	58.76899	-941.83496	68.68896	1689.47229	-1049.40173	NaN	NaN	NaN	NaN	NaN	NaN	NaN	NaN	NaN	NaN	NaN	NaN
73	0.72	188.34056	1651.37964	-1099.13647	174.97659	1633.27686	-968.90149	56.73157	1598.44751	-1116.74805	44.78678	1584.71167	-988.85095	49.65628	1438.26111	-1065.67725	4.43638	1111.44604	-1052.16638	157.59097	1358.47949	-1058.54919	192.9478	1182.98999	-1067.85791	-32.7149	1269.84314	-994.24304	111.21068	1394.79773	-1221.79395	130.99777	1200.34631	-1307.25867	147.07385	1090.2146	-1329.67505	233.75685	966.96765	-1340.25476	330.75787	895.50208	-1279.42102	289.32974	861.68073	-1325.73987	365.23453	815.52728	-1316.21301	101.09452	1389.71362	-899.75812	18.48994	1203.43738	-821.86206	-0.3864	1082.79224	-809.41357	-18.85721	964.21851	-789.11499	5.48163	811.81348	-807.44116	-52.55372	830.53986	-778.20276	-41.89417	746.59668	-771.7265	167.5179	948.74469	-1170.66382	185.65131	954.05933	-951.63995	12.2756	978.237	-1125.76086	34.1453	974.56677	-959.21954	68.58356	638.28613	-1214.03418	43.95197	475.08829	-1187.53906	-53.52916	233.95502	-1170.84827	-99.15501	70.53259	-1117.36182	-140.83807	63.01001	-1069.33813	38.30229	33.46744	-1125.4574	216.39879	630.43347	-886.11542	268.75403	516.55908	-911.55646	284.80701	255.17899	-916.24896	321.45013	72.47176	-958.99939	293.31519	43.11851	-1009.56818	473.70612	64.05393	-942.63855	82.72598	1687.01465	-1048.74939	NaN	NaN	NaN	NaN	NaN	NaN	NaN	NaN	NaN	NaN	NaN	NaN
74	0.73	202.65077	1649.22546	-1098.18738	188.91403	1630.84668	-967.93121	71.18918	1595.91321	-1116.16626	58.82103	1581.87598	-988.25385	64.3098	1435.88818	-1064.96545	18.8933	1108.98755	-1051.5498	172.32968	1356.04321	-1058.04504	207.62296	1180.5155	-1067.85376	-17.97462	1267.09265	-993.79388	125.63516	1392.54346	-1221.07153	146.93126	1198.9314	-1307.43762	164.25064	1089.13025	-1330.3252	255.10703	969.13831	-1339.63733	353.97119	902.07074	-1277.25867	314.65134	866.32574	-1323.79285	392.52921	823.71753	-1313.22815	115.69826	1387.08716	-899.21863	31.75903	1201.41187	-821.67938	11.90194	1080.96606	-809.0708	-8.54031	962.7998	-788.37726	14.07732	810.10004	-805.41333	-44.51583	829.69073	-777.38214	-35.32195	745.56677	-770.34753	181.9678	946.24982	-1170.70496	200.84747	951.31403	-951.53644	26.59354	975.70685	-1124.77356	49.12842	971.78143	-958.13171	79.60298	636.89856	-1214.01453	52.18037	473.98492	-1187.57629	-50.10414	234.60997	-1170.23987	-98.41715	71.94003	-1116.573	-139.93126	65.06993	-1068.35913	38.49702	33.32961	-1125.45178	227.94322	625.90735	-885.51373	281.6954	512.28882	-911.67328	309.6781	253.342	-917.05499	357.09146	72.87478	-959.55109	330.60229	42.38138	-1010.41876	509.79562	70.8007	-943.51886	96.66256	1684.46423	-1048.03235	NaN	NaN	NaN	NaN	NaN	NaN	NaN	NaN	NaN	NaN	NaN	NaN
75	0.74	216.90295	1647.03137	-1097.12756	202.91313	1628.46704	-966.9007	85.60001	1593.32959	-1115.49121	72.98315	1579.08496	-987.65533	78.99532	1433.44189	-1064.14709	33.59185	1106.46509	-1050.92993	187.21545	1353.6084	-1057.52039	222.43826	1178.04822	-1067.72217	-3.12148	1264.27795	-993.37952	140.32533	1390.55518	-1220.34216	162.76019	1197.48474	-1307.43225	181.17302	1087.8468	-1330.59875	275.71463	971.2663	-1338.85474	376.50366	908.65454	-1275.12659	339.21063	871.11987	-1321.80481	418.68121	831.95441	-1310.25549	130.42764	1384.47705	-898.60773	45.15521	1199.3833	-821.41742	24.52899	1079.13184	-808.57129	2.39453	961.35626	-787.58447	22.85705	808.11694	-803.8631	-35.54263	828.81073	-776.37457	-27.91062	744.58331	-768.95178	196.49951	943.7984	-1170.5968	216.05978	948.55011	-951.24554	41.22684	973.09814	-1123.83679	64.50082	968.87701	-957.17401	90.98299	635.52368	-1213.8811	60.87534	472.91199	-1187.52991	-46.80659	235.74057	-1169.99121	-97.64992	73.604	-1116.02075	-139.02492	67.49302	-1067.6377	38.66572	33.20594	-1125.42139	239.78305	621.51917	-884.23157	294.65512	508.00723	-911.45056	333.2355	251.90759	-917.90344	389.95297	74.06127	-960.45319	365.61929	42.23351	-1011.31952	542.7088	78.89811	-944.43896	110.64908	1681.83594	-1047.21094	NaN	NaN	NaN	NaN	NaN	NaN	NaN	NaN	NaN	NaN	NaN	NaN
